<?xml version="1.0" standalone="no"?><!DOCTYPE svg PUBLIC "-//W3C//DTD SVG 1.1//EN" "http://www.w3.org/Graphics/SVG/1.1/DTD/svg11.dtd"><svg t="1701831234237" class="icon" viewBox="0 0 1024 1024" version="1.1" xmlns="http://www.w3.org/2000/svg" p-id="1002" width="64" height="64" xmlns:xlink="http://www.w3.org/1999/xlink"><path d="M562.005333 660.138667a114.474667 114.474667 0 0 1 98.133334-98.133334c29.397333-4.010667 61.269333-7.338667 86.528-7.338666 25.258667 0 57.173333 3.328 86.528 7.338666 51.2 6.997333 91.136 46.933333 98.133333 98.133334 4.010667 29.397333 7.338667 61.269333 7.338667 86.528 0 25.258667-3.328 57.173333-7.338667 86.528a114.474667 114.474667 0 0 1-98.133333 98.133333c-29.397333 4.010667-61.269333 7.338667-86.528 7.338667-25.258667 0-57.173333-3.328-86.528-7.338667a114.474667 114.474667 0 0 1-98.133334-98.133333C557.994667 803.797333 554.666667 771.925333 554.666667 746.666667c0-25.258667 3.328-57.173333 7.338666-86.528zM92.672 660.138667a114.474667 114.474667 0 0 1 98.133333-98.133334C220.202667 557.994667 252.074667 554.666667 277.333333 554.666667c25.258667 0 57.173333 3.328 86.528 7.338666 51.2 6.997333 91.136 46.933333 98.133334 98.133334 4.010667 29.397333 7.338667 61.269333 7.338666 86.528 0 25.258667-3.328 57.173333-7.338666 86.528a114.474667 114.474667 0 0 1-98.133334 98.133333C334.464 935.338667 302.592 938.666667 277.333333 938.666667c-25.258667 0-57.173333-3.328-86.528-7.338667a114.474667 114.474667 0 0 1-98.133333-98.133333C88.661333 803.797333 85.333333 771.925333 85.333333 746.666667c0-25.258667 3.328-57.173333 7.338667-86.528zM562.005333 190.805333a114.474667 114.474667 0 0 1 98.133334-98.133333C689.536 88.661333 721.408 85.333333 746.666667 85.333333c25.258667 0 57.173333 3.328 86.528 7.338667 51.2 6.997333 91.136 46.933333 98.133333 98.133333 4.010667 29.397333 7.338667 61.269333 7.338667 86.528 0 25.258667-3.328 57.173333-7.338667 86.528a114.474667 114.474667 0 0 1-98.133333 98.133334c-29.397333 4.010667-61.269333 7.338667-86.528 7.338666-25.258667 0-57.173333-3.328-86.528-7.338666a114.474667 114.474667 0 0 1-98.133334-98.133334C557.994667 334.464 554.666667 302.592 554.666667 277.333333c0-25.258667 3.328-57.173333 7.338666-86.528z" fill="#06fddb" p-id="1003"></path><path d="M92.672 190.805333a114.474667 114.474667 0 0 1 98.133333-98.133333C220.202667 88.661333 252.074667 85.333333 277.333333 85.333333c25.258667 0 57.173333 3.328 86.528 7.338667 51.2 6.997333 91.136 46.933333 98.133334 98.133333 4.010667 29.397333 7.338667 61.269333 7.338666 86.528 0 25.258667-3.328 57.173333-7.338666 86.528a114.474667 114.474667 0 0 1-98.133334 98.133334C334.464 466.005333 302.592 469.333333 277.333333 469.333333c-25.258667 0-57.173333-3.328-86.528-7.338666a114.474667 114.474667 0 0 1-98.133333-98.133334C88.661333 334.464 85.333333 302.592 85.333333 277.333333c0-25.258667 3.328-57.173333 7.338667-86.528z" fill="#12131A" p-id="1004"></path></svg>